<svg width="29" height="28" viewBox="0 0 29 28" fill="none" xmlns="http://www.w3.org/2000/svg">
<path d="M10.3469 17.514C10.3469 19.3684 8.84516 20.8704 6.99107 20.8704C5.13698 20.8704 3.63525 19.3684 3.63525 17.514C3.63525 15.6596 5.13698 14.1577 6.99107 14.1577C8.84516 14.1577 10.3469 15.6596 10.3469 17.514Z" fill="black"/>
<path d="M0.279297 25.7931C0.279297 23.4123 4.75092 22.213 6.99092 22.213C9.23093 22.213 13.7026 23.4123 13.7026 25.7931V27.5832H0.279297V25.7931Z" fill="black"/>
<path d="M25.1125 17.514C25.1125 19.3684 23.6108 20.8704 21.7567 20.8704C19.9026 20.8704 18.4009 19.3684 18.4009 17.514C18.4009 15.6596 19.9026 14.1577 21.7567 14.1577C23.6108 14.1577 25.1125 15.6596 25.1125 17.514Z" fill="black"/>
<path d="M17.0583 16.8428C17.0583 18.3263 15.8569 19.5278 14.3736 19.5278C12.8903 19.5278 11.689 18.3263 11.689 16.8428C11.689 15.3592 12.8903 14.1577 14.3736 14.1577C15.8569 14.1577 17.0583 15.3592 17.0583 16.8428Z" fill="black"/>
<path d="M15.0449 25.7931C15.0449 23.4123 19.5165 22.213 21.7565 22.213C23.9966 22.213 28.4682 23.4123 28.4682 25.7931V27.5832H15.0449V25.7931Z" fill="black"/>
<path fill-rule="evenodd" clip-rule="evenodd" d="M17.5622 21.6659C17.3831 21.7317 17.2064 21.8017 17.0332 21.8756C16.2472 22.2116 15.4535 22.6654 14.8368 23.2725C14.6717 23.4352 14.515 23.6135 14.3737 23.8072C14.2324 23.6135 14.0757 23.4352 13.9105 23.2725C13.2939 22.6654 12.5001 22.2116 11.7141 21.8756C11.541 21.8017 11.3643 21.7317 11.1851 21.6659C12.207 21.1363 13.5212 20.8704 14.3737 20.8704C15.2261 20.8704 16.5403 21.1363 17.5622 21.6659Z" fill="black"/>
<path fill-rule="evenodd" clip-rule="evenodd" d="M11.0812 10.8013C14.6026 10.8013 17.4573 8.54722 17.4573 5.76674C17.4573 2.98622 14.6026 0.732178 11.0812 0.732178C7.55983 0.732178 4.70518 2.98622 4.70518 5.76674C4.70518 6.44217 4.87363 7.08653 5.17915 7.67503C4.50433 8.50231 4.33905 9.75484 4.30693 10.5421C4.29524 10.8286 4.64112 10.9752 4.87077 10.8035C5.33137 10.4592 6.06287 9.99227 7.0131 9.64355C8.11703 10.3666 9.53486 10.8013 11.0812 10.8013Z" fill="black"/>
<path fill-rule="evenodd" clip-rule="evenodd" d="M15.9624 10.711C17.6976 9.54166 18.8056 7.7611 18.8056 5.76675C18.8056 5.2302 18.7254 4.70913 18.5744 4.21128C18.9705 4.13114 19.3852 4.08856 19.8124 4.08856C22.5924 4.08856 24.8461 5.89181 24.8461 8.11621C24.8461 8.75284 24.6615 9.35491 24.3328 9.89018C24.6432 10.4161 24.7536 11.0755 24.7894 11.5716C24.81 11.8576 24.464 12.0075 24.229 11.8432C23.9382 11.6398 23.5421 11.4007 23.056 11.1963C22.1799 11.7875 21.0481 12.1439 19.8124 12.1439C18.2678 12.1439 16.8857 11.5872 15.9624 10.711Z" fill="black"/>
</svg>
