<svg width="15" height="20" viewBox="0 0 15 20" fill="none" xmlns="http://www.w3.org/2000/svg">
<path d="M7.5 9.41177C8.88071 9.41177 10 8.35832 10 7.05882C10 5.75933 8.88071 4.70588 7.5 4.70588C6.11929 4.70588 5 5.75933 5 7.05882C5 8.35832 6.11929 9.41177 7.5 9.41177Z" fill="#687590"/>
<path fill-rule="evenodd" clip-rule="evenodd" d="M6.41747 19.4118C6.89859 20.1961 8.10141 20.1961 8.58253 19.4118L13.9302 10.6941C14.6094 9.6323 15 8.3885 15 7.05882C15 3.16034 11.6421 0 7.5 0C3.35786 0 0 3.16034 0 7.05882C0 8.38856 0.390667 9.63243 1.06987 10.6943L6.41747 19.4118ZM11.7884 9.48063L11.7766 9.49904L7.5 16.4706L3.2235 9.49918L3.2117 9.48074C2.76027 8.77497 2.5 7.94909 2.5 7.05882C2.5 4.45984 4.73858 2.35294 7.5 2.35294C10.2614 2.35294 12.5 4.45984 12.5 7.05882C12.5 7.94905 12.2398 8.77489 11.7884 9.48063Z" fill="#687590"/>
</svg>
