<svg width="21" height="20" viewBox="0 0 21 20" fill="none" xmlns="http://www.w3.org/2000/svg">
<path d="M19.532 12.4547L16.7175 10.7098L17.8011 8.82735C18.0625 8.35731 18.1994 7.83413 18.2001 7.30284V4.31865C18.2023 3.47955 17.9458 2.65812 17.4622 1.95522C16.9786 1.25232 16.2888 0.698553 15.4777 0.361912C14.6665 0.0252707 13.7693 -0.0795853 12.8961 0.0602195C12.023 0.200024 11.2119 0.578404 10.5625 1.1489L11.5138 2.12195C11.9638 1.72773 12.5253 1.4665 13.1297 1.37027C13.734 1.27404 14.3549 1.34699 14.9161 1.5802C15.4774 1.8134 15.9546 2.19672 16.2893 2.68314C16.624 3.16957 16.8016 3.73797 16.8004 4.31865V7.30284C16.8003 7.61221 16.7221 7.91706 16.5723 8.19196L14.8701 11.1491L18.7656 13.5644C19.0227 13.7239 19.2337 13.9417 19.3795 14.1981C19.5252 14.4545 19.6009 14.7413 19.5999 15.0325V17.2502H16.4505V18.5765H20.9996V15.0325C21.001 14.521 20.8675 14.0172 20.6112 13.567C20.3549 13.1169 19.9839 12.7345 19.532 12.4547Z" fill="black"/>
<path d="M13.2336 13.781L10.4191 12.0361L11.5027 10.1536C11.7641 9.68357 11.901 9.1604 11.9017 8.62911V5.64491C11.9008 4.50107 11.4211 3.40427 10.5679 2.59513C9.71461 1.786 8.55747 1.3306 7.35031 1.32886C4.84318 1.32886 2.80352 3.26506 2.80352 5.64491V8.62911C2.80085 9.16016 2.93628 9.68365 3.19785 10.1533L4.28736 12.046L1.48926 13.781C1.03786 14.0603 0.667212 14.442 0.410961 14.8915C0.154711 15.341 0.0209684 15.844 0.0218707 16.3549L0 19.9027H14.7012V16.3587C14.7026 15.8472 14.5691 15.3435 14.3128 14.8933C14.0565 14.4431 13.6855 14.0608 13.2336 13.781ZM13.3015 18.5764H1.40786L1.42142 16.3587C1.42036 16.0675 1.49613 15.7807 1.64183 15.5243C1.78753 15.2679 1.99855 15.0501 2.2557 14.8906L6.13478 12.4855L4.42663 9.51823C4.27855 9.24292 4.20197 8.9381 4.20325 8.62911V5.64491C4.20325 4.85346 4.53505 4.09441 5.12568 3.53477C5.7163 2.97512 6.51736 2.66072 7.35263 2.66072C8.1879 2.66072 8.98895 2.97512 9.57958 3.53477C10.1702 4.09441 10.502 4.85346 10.502 5.64491V8.62911C10.5019 8.93848 10.4237 9.24333 10.2739 9.51823L8.57166 12.4754L12.4672 14.8907C12.7243 15.0502 12.9353 15.268 13.081 15.5244C13.2267 15.7808 13.3025 16.0676 13.3015 16.3588V18.5764Z" fill="black"/>
</svg>
