<svg width="40" height="28" viewBox="0 0 40 28" fill="none" xmlns="http://www.w3.org/2000/svg">
<path d="M32.2671 1.75258C32.2671 1.20333 32.7122 0.758102 33.2614 0.758102C36.0071 0.758102 38.233 2.98435 38.233 5.7305V7.31262C38.233 8.69306 37.5951 9.92453 36.5982 10.7283C38.1845 11.8007 39.2273 13.6161 39.2273 15.6753V18.6587C39.2273 19.208 38.7821 19.6532 38.233 19.6532C37.6838 19.6532 37.2387 19.208 37.2387 18.6587V15.6753C37.2387 13.4784 35.4579 11.6974 33.2614 11.6974C32.7122 11.6974 32.2671 11.2522 32.2671 10.7029C32.2671 10.1537 32.7122 9.70843 33.2614 9.70843H33.8489C35.1719 9.70843 36.2444 8.63578 36.2444 7.31262V5.7305C36.2444 4.08275 34.9089 2.74706 33.2614 2.74706C32.7122 2.74706 32.2671 2.30183 32.2671 1.75258Z" fill="black"/>
<path d="M29.2836 7.71946C27.6361 7.71946 26.3006 9.05515 26.3006 10.7029V12.5111C26.3006 14.1587 27.6361 15.4945 29.2836 15.4945H32.2665C33.914 15.4945 35.2495 16.8302 35.2495 18.4779V18.6587C35.2495 19.208 34.8043 19.6532 34.2552 19.6532C33.706 19.6532 33.2608 19.208 33.2608 18.6587V18.4779C33.2608 17.9287 32.8157 17.4835 32.2665 17.4835H29.2836C26.5379 17.4835 24.312 15.2572 24.312 12.5111V10.7029C24.312 7.95674 26.5379 5.7305 29.2836 5.7305C29.8327 5.7305 30.2779 6.17573 30.2779 6.72498C30.2779 7.27423 29.8327 7.71946 29.2836 7.71946Z" fill="black"/>
<path d="M2.43736 21.6422C1.33907 21.6422 0.44873 22.5327 0.44873 23.6312V25.6201C0.44873 26.7186 1.33907 27.6091 2.43736 27.6091H29.2839C30.3822 27.6091 31.2725 26.7186 31.2725 25.6201V23.6312C31.2725 22.5327 30.3822 21.6422 29.2839 21.6422H2.43736Z" fill="black"/>
<path d="M35.2499 22.6367C35.2499 22.0874 34.8047 21.6422 34.2555 21.6422C33.7064 21.6422 33.2612 22.0874 33.2612 22.6367V26.6146C33.2612 27.1639 33.7064 27.6091 34.2555 27.6091C34.8047 27.6091 35.2499 27.1639 35.2499 26.6146V22.6367Z" fill="black"/>
<path d="M39.2269 22.6367C39.2269 22.0874 38.7818 21.6422 38.2326 21.6422C37.6834 21.6422 37.2383 22.0874 37.2383 22.6367V26.6146C37.2383 27.1639 37.6834 27.6091 38.2326 27.6091C38.7818 27.6091 39.2269 27.1639 39.2269 26.6146V22.6367Z" fill="black"/>
</svg>
